<?xml version="1.0" encoding="utf-8"?>
<!-- Generator: Adobe Illustrator 18.0.0, SVG Export Plug-In . SVG Version: 6.00 Build 0)  -->
<!DOCTYPE svg PUBLIC "-//W3C//DTD SVG 1.1//EN" "http://www.w3.org/Graphics/SVG/1.1/DTD/svg11.dtd">
<svg version="1.1" id="Capa_1" xmlns="http://www.w3.org/2000/svg" xmlns:xlink="http://www.w3.org/1999/xlink" x="0px" y="0px"
	 viewBox="0 0 675 261" enable-background="new 0 0 675 261" xml:space="preserve">
<g>
	<g>
		<g>
			<path fill="#FFFFFF" d="M317.3,186.2h-64.1c-1-3.2-1.5-6.2-1.5-8.9c0-3.8,0.7-7.5,2-11.1h21.5c-1.5-8.4-6.2-12.5-14.1-12.5
				c-5.3,0-9.6,2.2-12.9,6.7c-3.3,4.5-5,10.2-5,17.2c0,7.3,1.6,13.2,4.8,17.7c3.2,4.5,7.4,6.8,12.6,6.8c4.2,0,8.3-2.1,12.2-6.3
				l24.1,28.9c-11.2,8.8-23.7,13.2-37.4,13.2c-16.7,0-30.8-5.6-42.2-16.8c-11.4-11.2-17.1-25.1-17.1-41.7c0-16.5,5.7-30.4,17.2-41.8
				c11.5-11.4,25.6-17.1,42.3-17.1c16.3,0,30.1,5.6,41.2,16.7c11.1,11.1,16.7,24.8,16.7,41.1C317.7,180,317.6,182.6,317.3,186.2z"/>
			<path fill="#FFFFFF" d="M396.6,121.9v45.2c-2.9-1.7-5.6-2.5-8-2.5c-7.7,0-11.5,5.9-11.5,17.6v53.5h-42.3v-61.6
				c0-16.3,4.4-29.3,13.3-38.9c8.9-9.7,20.8-14.5,35.6-14.5C387,120.7,391.3,121.1,396.6,121.9z"/>
			<path fill="#FFFFFF" d="M493.7,123.1L441,240.1l-52-117.1h40.3l12,30.4l13.1-30.4H493.7z"/>
			<path fill="#FFFFFF" d="M540.5,123.1v112.7h-42.3V123.1H540.5z M519.4,72.8c5.7,0,10.7,2,14.9,6c4.2,4,6.3,8.8,6.3,14.3
				c0,5.9-2,10.7-5.9,14.5c-4,3.8-9,5.7-15.2,5.7c-6.2,0-11.2-1.9-15.2-5.7c-4-3.8-5.9-8.6-5.9-14.5c0-5.5,2.1-10.3,6.3-14.3
				C508.8,74.8,513.7,72.8,519.4,72.8z"/>
			<path fill="#FFFFFF" d="M659.3,123.1l-34.6,68.4h39.8v44.3H555.9l34.4-68.6h-35.7v-44.1H659.3z"/>
		</g>
		<g>
			<path fill="#FFFFFF" d="M26,136.4c-3.5,5.8-7.2,11.1-10,16.9c-18.1,36.8-2.8,78.6,34.8,95.1c21.1,9.2,43,10.4,65.2,5.6
				c20-4.3,37.3-13.5,50.5-29.6c16.2-19.7,24.4-52,5.5-81.4c-7.1-11.1-16.3-20.1-27.3-27.2c-19.9-13-39.9-25.9-59.7-39
				c-5-3.3-9.7-7.1-14.1-11.1c-5.1-4.7-6.7-11-6-17.7c1.4-12.6,8.7-20.7,20.1-24.8c14.2-5.2,28.6-4.9,42.5,1.1
				c12.3,5.3,19.7,14.6,21,28.3c0.1,0.9,0.8,1.7,1.3,2.6c0.6-0.8,1.6-1.6,1.7-2.5c1.2-13,2.4-26,3.5-39c0.1-1.1,0-2.1,0-3.2
				c-0.5-0.1-0.8-0.3-1-0.2C136.8,10.8,120,7.6,103,7c-11.3-0.4-22.6-0.2-33.5,3.2c-42.9,13-48.9,62.4-30.6,86.5
				c5.5,7.3,12.2,13.1,19.7,18.1c18.4,12.3,36.8,24.5,55.1,36.9c9,6.1,16.3,13.8,21.6,23.4c10.5,18.8,6,47.2-17.9,59.3
				c-21,10.7-42.7,10.4-63.7,0.6c-21.3-9.9-33.8-27.1-36.5-50.7c-1.8-15.4,2.7-29.6,10.4-42.9c0.5-0.9,1-1.7,1.5-2.6
				C28.1,138,27.3,137.4,26,136.4z"/>
			<path fill="#FFFFFF" d="M26,136.4c1.4,1.1,2.1,1.7,3,2.4c-0.5,0.9-1,1.7-1.5,2.6c-7.6,13.3-12.1,27.5-10.4,42.9
				c2.7,23.6,15.2,40.8,36.5,50.7c21,9.8,42.7,10.1,63.7-0.6c23.9-12.1,28.4-40.5,17.9-59.3c-5.4-9.6-12.6-17.3-21.6-23.4
				c-18.3-12.4-36.7-24.7-55.1-36.9c-7.5-5-14.2-10.8-19.7-18.1C20.5,72.5,26.6,23.2,69.4,10.1C80.4,6.8,91.6,6.5,103,7
				c17,0.6,33.8,3.8,50.9,3c0.3,0,0.5,0.1,1,0.2c0,1,0.1,2.1,0,3.2c-1.1,13-2.2,26-3.5,39c-0.1,0.9-1.1,1.7-1.7,2.5
				c-0.4-0.8-1.2-1.7-1.3-2.6c-1.3-13.7-8.7-23.1-21-28.3c-13.9-6-28.3-6.3-42.5-1.1c-11.4,4.2-18.8,12.3-20.1,24.8
				c-0.7,6.8,1,13.1,6,17.7c4.4,4.1,9.1,7.8,14.1,11.1c19.8,13.1,39.8,26,59.7,39c11,7.2,20.1,16.1,27.3,27.2
				c18.9,29.4,10.7,61.7-5.5,81.4c-13.2,16.1-30.5,25.2-50.5,29.6c-22.2,4.8-44.2,3.7-65.2-5.6c-37.6-16.5-52.9-58.2-34.8-95.1
				C18.8,147.5,22.5,142.2,26,136.4z"/>
		</g>
	</g>
</g>
</svg>
