<?xml version="1.0" encoding="utf-8"?>
<!-- Generator: Adobe Illustrator 18.0.0, SVG Export Plug-In . SVG Version: 6.00 Build 0)  -->
<!DOCTYPE svg PUBLIC "-//W3C//DTD SVG 1.1//EN" "http://www.w3.org/Graphics/SVG/1.1/DTD/svg11.dtd">
<svg version="1.1" id="Capa_1" xmlns="http://www.w3.org/2000/svg" xmlns:xlink="http://www.w3.org/1999/xlink" x="0px" y="0px"
	 viewBox="0 0 784 161" enable-background="new 0 0 784 161" xml:space="preserve">
<g>
	<rect x="131.2" y="61.7" fill="#FFFFFF" stroke="#0090FF" stroke-miterlimit="10" width="542.3" height="0.5"/>
	<circle fill="#FFFFFF" stroke="#0090FF" stroke-miterlimit="10" cx="286.1" cy="62.6" r="45.3"/>
	<circle fill="#FFFFFF" stroke="#0090FF" stroke-miterlimit="10" cx="478.5" cy="62.6" r="45.3"/>
	<circle fill="#FFFFFF" stroke="#0090FF" stroke-miterlimit="10" cx="666.4" cy="62.6" r="45.3"/>
	<circle fill="#FFFFFF" stroke="#0090FF" stroke-miterlimit="10" cx="101.1" cy="62.6" r="45.3"/>
	<g>
		<g>
			<path fill="#0090FF" d="M104.6,85.9h-6.3V54.6c0-1.1,0-2.1,0-3.1c0-0.9,0-1.8,0.1-2.7c0-0.9,0.1-1.7,0.1-2.5
				C98,47,97.5,47.5,96.9,48c-0.6,0.5-1.3,1.1-2.1,1.8L89.5,54l-3.3-4.2l13.1-10.2h5.3V85.9z"/>
		</g>
	</g>
	<g>
		<g>
			<path fill="#0090FF" d="M38.6,142.2h-7.1v-12.7h7.1v1.3h-5.6v4.1h5.3v1.3h-5.3v4.7h5.6V142.2z"/>
			<path fill="#0090FF" d="M42.6,142.2h-1.5v-13.6h1.5V142.2z"/>
			<path fill="#0090FF" d="M46.4,129.1c0.2,0,0.4,0.1,0.6,0.2s0.3,0.4,0.3,0.7c0,0.3-0.1,0.6-0.3,0.7s-0.4,0.2-0.6,0.2
				c-0.3,0-0.5-0.1-0.6-0.2c-0.2-0.2-0.2-0.4-0.2-0.7c0-0.3,0.1-0.6,0.2-0.7C46,129.2,46.2,129.1,46.4,129.1z M47.1,132.7v9.6h-1.4
				v-9.6H47.1z"/>
			<path fill="#0090FF" d="M52.9,146.5c-1.3,0-2.2-0.2-2.9-0.7c-0.7-0.5-1-1.1-1-2c0-0.6,0.2-1.1,0.6-1.5c0.4-0.4,0.9-0.7,1.6-0.8
				c-0.3-0.1-0.5-0.3-0.6-0.5s-0.3-0.5-0.3-0.8c0-0.3,0.1-0.7,0.3-0.9s0.5-0.5,0.9-0.8c-0.5-0.2-0.9-0.5-1.2-1
				c-0.3-0.5-0.5-1.1-0.5-1.7c0-0.7,0.1-1.3,0.4-1.8c0.3-0.5,0.7-0.9,1.2-1.1c0.5-0.3,1.2-0.4,2-0.4c0.2,0,0.3,0,0.5,0
				c0.2,0,0.3,0,0.5,0.1c0.2,0,0.3,0.1,0.4,0.1H58v0.9l-1.8,0.2c0.2,0.2,0.3,0.5,0.4,0.8c0.1,0.3,0.2,0.7,0.2,1.1c0,1-0.3,1.7-1,2.3
				c-0.6,0.6-1.5,0.8-2.7,0.8c-0.3,0-0.5,0-0.8-0.1c-0.3,0.2-0.5,0.3-0.6,0.5c-0.1,0.2-0.2,0.4-0.2,0.7c0,0.2,0.1,0.3,0.2,0.4
				s0.3,0.2,0.5,0.2c0.2,0,0.5,0.1,0.8,0.1h1.7c1,0,1.8,0.2,2.4,0.7c0.6,0.4,0.8,1.1,0.8,1.9c0,1.1-0.4,1.9-1.3,2.4
				S54.5,146.5,52.9,146.5z M52.9,145.4c0.8,0,1.4-0.1,2-0.2c0.5-0.2,0.9-0.4,1.2-0.7c0.3-0.3,0.4-0.7,0.4-1.1
				c0-0.4-0.1-0.7-0.3-0.9c-0.2-0.2-0.4-0.3-0.8-0.4c-0.3-0.1-0.7-0.1-1.2-0.1h-1.7c-0.4,0-0.8,0.1-1.1,0.2s-0.6,0.3-0.7,0.6
				c-0.2,0.3-0.3,0.6-0.3,1c0,0.5,0.2,0.9,0.7,1.2C51.5,145.3,52.1,145.4,52.9,145.4z M53.3,137.8c0.7,0,1.2-0.2,1.6-0.5
				s0.5-0.9,0.5-1.5c0-0.7-0.2-1.3-0.5-1.6s-0.9-0.5-1.6-0.5c-0.7,0-1.2,0.2-1.5,0.6s-0.5,0.9-0.5,1.6c0,0.7,0.2,1.2,0.5,1.5
				S52.6,137.8,53.3,137.8z"/>
			<path fill="#0090FF" d="M63.6,132.5c0.8,0,1.5,0.2,2.1,0.5c0.6,0.4,1,0.9,1.3,1.5s0.5,1.4,0.5,2.3v0.9h-6.6c0,1.1,0.3,2,0.8,2.6
				c0.5,0.6,1.3,0.9,2.3,0.9c0.6,0,1.1-0.1,1.6-0.2c0.5-0.1,0.9-0.3,1.4-0.5v1.3c-0.5,0.2-1,0.4-1.4,0.5c-0.5,0.1-1,0.1-1.7,0.1
				c-0.9,0-1.7-0.2-2.4-0.6s-1.2-0.9-1.6-1.7c-0.4-0.7-0.6-1.6-0.6-2.7c0-1,0.2-1.9,0.5-2.7s0.8-1.3,1.5-1.7
				C62,132.7,62.7,132.5,63.6,132.5z M63.5,133.7c-0.8,0-1.4,0.3-1.8,0.8c-0.5,0.5-0.7,1.2-0.8,2.1h5.1c0-0.6-0.1-1.1-0.3-1.5
				c-0.2-0.4-0.4-0.8-0.8-1S64.1,133.7,63.5,133.7z"/>
			<path fill="#0090FF" d="M77.6,141.2c0.2,0,0.5,0,0.7-0.1c0.2,0,0.5-0.1,0.6-0.1v1.1c-0.2,0.1-0.4,0.1-0.7,0.2
				c-0.3,0.1-0.6,0.1-0.9,0.1c-0.5,0-1-0.1-1.4-0.3s-0.7-0.5-1-0.9c-0.2-0.4-0.4-1-0.4-1.8v-5.7h-1.4v-0.7l1.4-0.6l0.6-2.1h0.9v2.2
				h2.8v1.1h-2.8v5.6c0,0.6,0.1,1,0.4,1.3S77.2,141.2,77.6,141.2z"/>
			<path fill="#0090FF" d="M88.8,132.7v9.6h-1.2l-0.2-1.3h-0.1c-0.2,0.3-0.5,0.6-0.8,0.8c-0.3,0.2-0.7,0.4-1.1,0.5s-0.8,0.2-1.3,0.2
				c-0.8,0-1.4-0.1-1.9-0.4c-0.5-0.2-0.9-0.6-1.2-1.1c-0.3-0.5-0.4-1.2-0.4-2v-6.3h1.5v6.2c0,0.8,0.2,1.4,0.5,1.8s0.9,0.6,1.6,0.6
				c0.7,0,1.3-0.1,1.7-0.4c0.4-0.3,0.7-0.7,0.9-1.2c0.2-0.5,0.3-1.2,0.3-1.9v-5H88.8z"/>
			<path fill="#0090FF" d="M102.7,139.6c0,0.6-0.2,1.1-0.5,1.5c-0.3,0.4-0.7,0.7-1.3,0.9s-1.2,0.3-2,0.3c-0.7,0-1.2-0.1-1.7-0.2
				c-0.5-0.1-0.9-0.3-1.3-0.4v-1.3c0.4,0.2,0.9,0.4,1.4,0.5c0.5,0.2,1.1,0.2,1.7,0.2c0.8,0,1.4-0.1,1.8-0.4c0.4-0.3,0.6-0.6,0.6-1.1
				c0-0.3-0.1-0.5-0.2-0.7s-0.4-0.4-0.7-0.6c-0.3-0.2-0.8-0.4-1.4-0.6c-0.6-0.2-1.1-0.5-1.6-0.7s-0.8-0.5-1-0.8s-0.4-0.8-0.4-1.3
				c0-0.8,0.3-1.4,1-1.9s1.5-0.6,2.6-0.6c0.6,0,1.1,0.1,1.6,0.2c0.5,0.1,1,0.3,1.4,0.5l-0.5,1.2c-0.4-0.2-0.8-0.3-1.3-0.4
				s-0.9-0.2-1.4-0.2c-0.7,0-1.2,0.1-1.5,0.3s-0.5,0.5-0.5,0.9c0,0.3,0.1,0.5,0.2,0.7c0.2,0.2,0.4,0.4,0.8,0.5
				c0.4,0.2,0.8,0.4,1.4,0.6c0.6,0.2,1.1,0.4,1.6,0.7s0.8,0.5,1,0.9S102.7,139.1,102.7,139.6z"/>
			<path fill="#0090FF" d="M108.7,132.5c0.8,0,1.5,0.2,2.1,0.5c0.6,0.4,1,0.9,1.3,1.5s0.5,1.4,0.5,2.3v0.9H106c0,1.1,0.3,2,0.8,2.6
				c0.5,0.6,1.3,0.9,2.3,0.9c0.6,0,1.1-0.1,1.6-0.2c0.5-0.1,0.9-0.3,1.4-0.5v1.3c-0.5,0.2-1,0.4-1.4,0.5c-0.5,0.1-1,0.1-1.7,0.1
				c-0.9,0-1.7-0.2-2.4-0.6s-1.2-0.9-1.6-1.7c-0.4-0.7-0.6-1.6-0.6-2.7c0-1,0.2-1.9,0.5-2.7s0.8-1.3,1.5-1.7
				C107.1,132.7,107.8,132.5,108.7,132.5z M108.7,133.7c-0.8,0-1.4,0.3-1.8,0.8c-0.5,0.5-0.7,1.2-0.8,2.1h5.1c0-0.6-0.1-1.1-0.3-1.5
				c-0.2-0.4-0.4-0.8-0.8-1S109.2,133.7,108.7,133.7z"/>
			<path fill="#0090FF" d="M119.4,132.5c0.2,0,0.4,0,0.6,0c0.2,0,0.4,0,0.6,0.1l-0.2,1.3c-0.2,0-0.3-0.1-0.5-0.1c-0.2,0-0.4,0-0.5,0
				c-0.4,0-0.7,0.1-1.1,0.2c-0.3,0.2-0.6,0.4-0.9,0.7c-0.3,0.3-0.5,0.6-0.6,1c-0.1,0.4-0.2,0.9-0.2,1.3v5.1H115v-9.6h1.2l0.2,1.8
				h0.1c0.2-0.4,0.4-0.7,0.7-1c0.3-0.3,0.6-0.5,1-0.7S118.9,132.5,119.4,132.5z"/>
			<path fill="#0090FF" d="M124.4,142.2l-3.6-9.6h1.6l2.1,5.8c0.1,0.4,0.3,0.8,0.4,1.3s0.3,0.9,0.3,1.2h0.1c0.1-0.3,0.2-0.7,0.3-1.2
				c0.2-0.5,0.3-0.9,0.4-1.3l2.1-5.8h1.6l-3.6,9.6H124.4z"/>
			<path fill="#0090FF" d="M132,129.1c0.2,0,0.4,0.1,0.6,0.2s0.3,0.4,0.3,0.7c0,0.3-0.1,0.6-0.3,0.7s-0.4,0.2-0.6,0.2
				c-0.3,0-0.5-0.1-0.6-0.2c-0.2-0.2-0.2-0.4-0.2-0.7c0-0.3,0.1-0.6,0.2-0.7C131.5,129.2,131.7,129.1,132,129.1z M132.7,132.7v9.6
				h-1.4v-9.6H132.7z"/>
			<path fill="#0090FF" d="M139.6,142.4c-0.9,0-1.6-0.2-2.3-0.5c-0.7-0.4-1.2-0.9-1.5-1.6c-0.4-0.7-0.5-1.6-0.5-2.7
				c0-1.2,0.2-2.1,0.6-2.8c0.4-0.7,0.9-1.3,1.6-1.6c0.7-0.4,1.5-0.5,2.3-0.5c0.5,0,0.9,0,1.4,0.1c0.4,0.1,0.8,0.2,1.1,0.4l-0.4,1.2
				c-0.3-0.1-0.6-0.2-1-0.3c-0.4-0.1-0.7-0.1-1.1-0.1c-0.7,0-1.2,0.1-1.7,0.4s-0.8,0.7-1,1.3c-0.2,0.6-0.3,1.2-0.3,2
				c0,0.8,0.1,1.4,0.3,2c0.2,0.5,0.5,1,1,1.3c0.4,0.3,0.9,0.4,1.6,0.4c0.5,0,1-0.1,1.4-0.2c0.4-0.1,0.8-0.2,1.1-0.4v1.3
				c-0.3,0.2-0.7,0.3-1.1,0.4C140.6,142.4,140.1,142.4,139.6,142.4z"/>
			<path fill="#0090FF" d="M145,129.1c0.2,0,0.4,0.1,0.6,0.2s0.3,0.4,0.3,0.7c0,0.3-0.1,0.6-0.3,0.7s-0.4,0.2-0.6,0.2
				c-0.3,0-0.5-0.1-0.6-0.2c-0.2-0.2-0.2-0.4-0.2-0.7c0-0.3,0.1-0.6,0.2-0.7C144.6,129.2,144.8,129.1,145,129.1z M145.7,132.7v9.6
				h-1.4v-9.6H145.7z"/>
			<path fill="#0090FF" d="M157,137.4c0,0.8-0.1,1.5-0.3,2.1c-0.2,0.6-0.5,1.1-0.9,1.6c-0.4,0.4-0.8,0.7-1.4,1
				c-0.5,0.2-1.2,0.3-1.8,0.3c-0.6,0-1.2-0.1-1.8-0.3c-0.5-0.2-1-0.5-1.4-1c-0.4-0.4-0.7-0.9-0.9-1.6c-0.2-0.6-0.3-1.3-0.3-2.1
				c0-1,0.2-1.9,0.5-2.7c0.4-0.7,0.9-1.3,1.5-1.7c0.7-0.4,1.4-0.6,2.4-0.6c0.9,0,1.6,0.2,2.3,0.6s1.2,1,1.5,1.7
				C156.9,135.5,157,136.4,157,137.4z M149.8,137.4c0,0.8,0.1,1.4,0.3,2s0.5,1,0.9,1.3c0.4,0.3,1,0.5,1.6,0.5c0.7,0,1.2-0.2,1.6-0.5
				c0.4-0.3,0.7-0.7,0.9-1.3c0.2-0.6,0.3-1.2,0.3-2c0-0.8-0.1-1.4-0.3-2c-0.2-0.6-0.5-1-0.9-1.3c-0.4-0.3-1-0.5-1.6-0.5
				c-1,0-1.7,0.3-2.2,1C150,135.4,149.8,136.3,149.8,137.4z"/>
		</g>
	</g>
	<g>
		<g>
			<path fill="#0090FF" d="M301.5,83.6h-30.7v-5l12.2-12.3c2.3-2.3,4.2-4.4,5.8-6.1c1.5-1.8,2.7-3.5,3.5-5.1
				c0.8-1.7,1.2-3.5,1.2-5.4c0-2.4-0.7-4.2-2.1-5.5c-1.4-1.3-3.3-1.9-5.6-1.9c-2.1,0-4,0.4-5.7,1.2c-1.7,0.8-3.4,1.9-5.3,3.3
				l-3.4-4.2c1.2-1.1,2.6-2,4-2.9c1.5-0.9,3-1.5,4.8-2c1.7-0.5,3.6-0.8,5.7-0.8c2.9,0,5.4,0.5,7.5,1.5c2.1,1,3.7,2.4,4.8,4.3
				c1.1,1.9,1.7,4,1.7,6.5c0,2.5-0.5,4.7-1.5,6.8c-1,2.1-2.4,4.2-4.2,6.2c-1.8,2.1-3.9,4.3-6.3,6.6l-9,8.9V78h22.7V83.6z"/>
		</g>
	</g>
	<g>
		<g>
			<path fill="#0090FF" d="M212.9,141.1h-7.1v-12.7h7.1v1.3h-5.6v4.1h5.3v1.3h-5.3v4.7h5.6V141.1z"/>
			<path fill="#0090FF" d="M217,141.1h-1.5v-13.6h1.5V141.1z"/>
			<path fill="#0090FF" d="M220.8,128c0.2,0,0.4,0.1,0.6,0.2s0.3,0.4,0.3,0.7c0,0.3-0.1,0.6-0.3,0.7s-0.4,0.2-0.6,0.2
				c-0.3,0-0.5-0.1-0.6-0.2c-0.2-0.2-0.2-0.4-0.2-0.7c0-0.3,0.1-0.6,0.2-0.7C220.3,128.1,220.5,128,220.8,128z M221.5,131.6v9.6H220
				v-9.6H221.5z"/>
			<path fill="#0090FF" d="M227.2,145.4c-1.3,0-2.2-0.2-2.9-0.7c-0.7-0.5-1-1.1-1-2c0-0.6,0.2-1.1,0.6-1.5c0.4-0.4,0.9-0.7,1.6-0.8
				c-0.3-0.1-0.5-0.3-0.6-0.5s-0.3-0.5-0.3-0.8c0-0.3,0.1-0.7,0.3-0.9s0.5-0.5,0.9-0.8c-0.5-0.2-0.9-0.5-1.2-1
				c-0.3-0.5-0.5-1.1-0.5-1.7c0-0.7,0.1-1.3,0.4-1.8c0.3-0.5,0.7-0.9,1.2-1.1c0.5-0.3,1.2-0.4,2-0.4c0.2,0,0.3,0,0.5,0
				c0.2,0,0.3,0,0.5,0.1c0.2,0,0.3,0.1,0.4,0.1h3.3v0.9l-1.8,0.2c0.2,0.2,0.3,0.5,0.4,0.8c0.1,0.3,0.2,0.7,0.2,1.1
				c0,1-0.3,1.7-1,2.3c-0.6,0.6-1.5,0.8-2.7,0.8c-0.3,0-0.5,0-0.8-0.1c-0.3,0.2-0.5,0.3-0.6,0.5c-0.1,0.2-0.2,0.4-0.2,0.7
				c0,0.2,0.1,0.3,0.2,0.4s0.3,0.2,0.5,0.2c0.2,0,0.5,0.1,0.8,0.1h1.7c1,0,1.8,0.2,2.4,0.7c0.6,0.4,0.8,1.1,0.8,1.9
				c0,1.1-0.4,1.9-1.3,2.4S228.8,145.4,227.2,145.4z M227.2,144.3c0.8,0,1.4-0.1,2-0.2c0.5-0.2,0.9-0.4,1.2-0.7
				c0.3-0.3,0.4-0.7,0.4-1.1c0-0.4-0.1-0.7-0.3-0.9c-0.2-0.2-0.4-0.3-0.8-0.4c-0.3-0.1-0.7-0.1-1.2-0.1h-1.7c-0.4,0-0.8,0.1-1.1,0.2
				s-0.6,0.3-0.7,0.6c-0.2,0.3-0.3,0.6-0.3,1c0,0.5,0.2,0.9,0.7,1.2C225.8,144.1,226.4,144.3,227.2,144.3z M227.6,136.6
				c0.7,0,1.2-0.2,1.6-0.5s0.5-0.9,0.5-1.5c0-0.7-0.2-1.3-0.5-1.6s-0.9-0.5-1.6-0.5c-0.7,0-1.2,0.2-1.5,0.6s-0.5,0.9-0.5,1.6
				c0,0.7,0.2,1.2,0.5,1.5S227,136.6,227.6,136.6z"/>
			<path fill="#0090FF" d="M237.9,131.4c0.8,0,1.5,0.2,2.1,0.5c0.6,0.4,1,0.9,1.3,1.5s0.5,1.4,0.5,2.3v0.9h-6.6c0,1.1,0.3,2,0.8,2.6
				c0.5,0.6,1.3,0.9,2.3,0.9c0.6,0,1.1-0.1,1.6-0.2c0.5-0.1,0.9-0.3,1.4-0.5v1.3c-0.5,0.2-1,0.4-1.4,0.5c-0.5,0.1-1,0.1-1.7,0.1
				c-0.9,0-1.7-0.2-2.4-0.6s-1.2-0.9-1.6-1.7c-0.4-0.7-0.6-1.6-0.6-2.7c0-1,0.2-1.9,0.5-2.7s0.8-1.3,1.5-1.7
				C236.3,131.6,237.1,131.4,237.9,131.4z M237.9,132.6c-0.8,0-1.4,0.3-1.8,0.8c-0.5,0.5-0.7,1.2-0.8,2.1h5.1c0-0.6-0.1-1.1-0.3-1.5
				c-0.2-0.4-0.4-0.8-0.8-1S238.4,132.6,237.9,132.6z"/>
			<path fill="#0090FF" d="M252.6,131.4c0.8,0,1.5,0.2,2.1,0.5c0.6,0.4,1,0.9,1.3,1.5s0.5,1.4,0.5,2.3v0.9h-6.6c0,1.1,0.3,2,0.8,2.6
				c0.5,0.6,1.3,0.9,2.3,0.9c0.6,0,1.1-0.1,1.6-0.2c0.5-0.1,0.9-0.3,1.4-0.5v1.3c-0.5,0.2-1,0.4-1.4,0.5c-0.5,0.1-1,0.1-1.7,0.1
				c-0.9,0-1.7-0.2-2.4-0.6s-1.2-0.9-1.6-1.7c-0.4-0.7-0.6-1.6-0.6-2.7c0-1,0.2-1.9,0.5-2.7s0.8-1.3,1.5-1.7
				C251,131.6,251.7,131.4,252.6,131.4z M252.6,132.6c-0.8,0-1.4,0.3-1.8,0.8c-0.5,0.5-0.7,1.2-0.8,2.1h5.1c0-0.6-0.1-1.1-0.3-1.5
				c-0.2-0.4-0.4-0.8-0.8-1S253.1,132.6,252.6,132.6z"/>
			<path fill="#0090FF" d="M260.4,141.1h-1.5v-13.6h1.5V141.1z"/>
			<path fill="#0090FF" d="M271.9,141.3c-0.9,0-1.6-0.2-2.3-0.5c-0.7-0.4-1.2-0.9-1.5-1.6c-0.4-0.7-0.5-1.6-0.5-2.7
				c0-1.2,0.2-2.1,0.6-2.8c0.4-0.7,0.9-1.3,1.6-1.6c0.7-0.4,1.5-0.5,2.3-0.5c0.5,0,0.9,0,1.4,0.1c0.4,0.1,0.8,0.2,1.1,0.4l-0.4,1.2
				c-0.3-0.1-0.6-0.2-1-0.3c-0.4-0.1-0.7-0.1-1.1-0.1c-0.7,0-1.2,0.1-1.7,0.4s-0.8,0.7-1,1.3c-0.2,0.6-0.3,1.2-0.3,2
				c0,0.8,0.1,1.4,0.3,2c0.2,0.5,0.5,1,1,1.3c0.4,0.3,0.9,0.4,1.6,0.4c0.5,0,1-0.1,1.4-0.2c0.4-0.1,0.8-0.2,1.1-0.4v1.3
				c-0.3,0.2-0.7,0.3-1.1,0.4C272.9,141.2,272.4,141.3,271.9,141.3z"/>
			<path fill="#0090FF" d="M284.9,136.3c0,0.8-0.1,1.5-0.3,2.1c-0.2,0.6-0.5,1.1-0.9,1.6c-0.4,0.4-0.8,0.7-1.4,1
				c-0.5,0.2-1.2,0.3-1.8,0.3c-0.6,0-1.2-0.1-1.8-0.3c-0.5-0.2-1-0.5-1.4-1c-0.4-0.4-0.7-0.9-0.9-1.6c-0.2-0.6-0.3-1.3-0.3-2.1
				c0-1,0.2-1.9,0.5-2.7c0.4-0.7,0.9-1.3,1.5-1.7c0.7-0.4,1.4-0.6,2.4-0.6c0.9,0,1.6,0.2,2.3,0.6s1.2,1,1.5,1.7
				C284.7,134.4,284.9,135.3,284.9,136.3z M277.6,136.3c0,0.8,0.1,1.4,0.3,2s0.5,1,0.9,1.3c0.4,0.3,1,0.5,1.6,0.5
				c0.7,0,1.2-0.2,1.6-0.5c0.4-0.3,0.7-0.7,0.9-1.3c0.2-0.6,0.3-1.2,0.3-2c0-0.8-0.1-1.4-0.3-2c-0.2-0.6-0.5-1-0.9-1.3
				c-0.4-0.3-1-0.5-1.6-0.5c-1,0-1.7,0.3-2.2,1C277.8,134.3,277.6,135.2,277.6,136.3z"/>
			<path fill="#0090FF" d="M288.8,141.1h-1.5v-13.6h1.5V141.1z"/>
			<path fill="#0090FF" d="M295.4,131.4c1.1,0,2,0.3,2.5,0.8c0.6,0.5,0.8,1.3,0.8,2.4v6.5h-1.1l-0.3-1.4h-0.1
				c-0.3,0.3-0.5,0.6-0.8,0.9c-0.3,0.2-0.6,0.4-1,0.5c-0.4,0.1-0.8,0.2-1.4,0.2c-0.6,0-1.1-0.1-1.5-0.3c-0.5-0.2-0.8-0.5-1.1-0.9
				c-0.3-0.4-0.4-0.9-0.4-1.6c0-1,0.4-1.7,1.1-2.2c0.8-0.5,1.9-0.8,3.5-0.8l1.6-0.1v-0.6c0-0.8-0.2-1.4-0.5-1.7s-0.9-0.5-1.5-0.5
				c-0.5,0-1,0.1-1.4,0.2c-0.5,0.1-0.9,0.3-1.3,0.5l-0.4-1.1c0.4-0.2,0.9-0.4,1.5-0.6S294.8,131.4,295.4,131.4z M297.4,136.4
				l-1.5,0.1c-1.2,0-2,0.2-2.5,0.6c-0.5,0.3-0.7,0.8-0.7,1.5c0,0.5,0.2,1,0.5,1.2s0.8,0.4,1.3,0.4c0.8,0,1.5-0.2,2.1-0.7
				c0.5-0.5,0.8-1.2,0.8-2.1V136.4z"/>
			<path fill="#0090FF" d="M303.2,127.6v3.4c0,0.4,0,0.8,0,1.1c0,0.4,0,0.7,0,0.9h0.1c0.3-0.4,0.6-0.8,1.1-1.1s1.1-0.4,1.9-0.4
				c1.2,0,2.2,0.4,2.9,1.2c0.7,0.8,1.1,2.1,1.1,3.7c0,1.1-0.2,2-0.5,2.7c-0.3,0.7-0.8,1.3-1.4,1.7c-0.6,0.4-1.3,0.6-2.1,0.6
				c-0.8,0-1.4-0.1-1.9-0.4c-0.5-0.3-0.9-0.6-1.1-1h-0.1l-0.3,1.3h-1v-13.6H303.2z M306,132.6c-0.7,0-1.2,0.1-1.6,0.4
				c-0.4,0.3-0.7,0.7-0.9,1.2s-0.3,1.2-0.3,2.1v0.1c0,1.2,0.2,2.1,0.6,2.8c0.4,0.6,1.1,1,2.2,1c0.9,0,1.6-0.3,2-1
				c0.4-0.7,0.7-1.6,0.7-2.8c0-1.2-0.2-2.2-0.7-2.8C307.6,132.9,306.9,132.6,306,132.6z"/>
			<path fill="#0090FF" d="M320.9,136.3c0,0.8-0.1,1.5-0.3,2.1c-0.2,0.6-0.5,1.1-0.9,1.6c-0.4,0.4-0.8,0.7-1.4,1
				c-0.5,0.2-1.2,0.3-1.8,0.3c-0.6,0-1.2-0.1-1.8-0.3c-0.5-0.2-1-0.5-1.4-1c-0.4-0.4-0.7-0.9-0.9-1.6c-0.2-0.6-0.3-1.3-0.3-2.1
				c0-1,0.2-1.9,0.5-2.7c0.4-0.7,0.9-1.3,1.5-1.7c0.7-0.4,1.4-0.6,2.4-0.6c0.9,0,1.6,0.2,2.3,0.6s1.2,1,1.5,1.7
				C320.8,134.4,320.9,135.3,320.9,136.3z M313.7,136.3c0,0.8,0.1,1.4,0.3,2s0.5,1,0.9,1.3c0.4,0.3,1,0.5,1.6,0.5
				c0.7,0,1.2-0.2,1.6-0.5c0.4-0.3,0.7-0.7,0.9-1.3c0.2-0.6,0.3-1.2,0.3-2c0-0.8-0.1-1.4-0.3-2c-0.2-0.6-0.5-1-0.9-1.3
				c-0.4-0.3-1-0.5-1.6-0.5c-1,0-1.7,0.3-2.2,1C313.9,134.3,313.7,135.2,313.7,136.3z"/>
			<path fill="#0090FF" d="M327.8,131.4c0.2,0,0.4,0,0.6,0c0.2,0,0.4,0,0.6,0.1l-0.2,1.3c-0.2,0-0.3-0.1-0.5-0.1c-0.2,0-0.4,0-0.5,0
				c-0.4,0-0.7,0.1-1.1,0.2c-0.3,0.2-0.6,0.4-0.9,0.7c-0.3,0.3-0.5,0.6-0.6,1c-0.1,0.4-0.2,0.9-0.2,1.3v5.1h-1.5v-9.6h1.2l0.2,1.8
				h0.1c0.2-0.4,0.4-0.7,0.7-1c0.3-0.3,0.6-0.5,1-0.7S327.3,131.4,327.8,131.4z"/>
			<path fill="#0090FF" d="M334.3,131.4c1.1,0,2,0.3,2.5,0.8c0.6,0.5,0.8,1.3,0.8,2.4v6.5h-1.1l-0.3-1.4h-0.1
				c-0.3,0.3-0.5,0.6-0.8,0.9c-0.3,0.2-0.6,0.4-1,0.5c-0.4,0.1-0.8,0.2-1.4,0.2c-0.6,0-1.1-0.1-1.5-0.3c-0.5-0.2-0.8-0.5-1.1-0.9
				c-0.3-0.4-0.4-0.9-0.4-1.6c0-1,0.4-1.7,1.1-2.2c0.8-0.5,1.9-0.8,3.5-0.8l1.6-0.1v-0.6c0-0.8-0.2-1.4-0.5-1.7s-0.9-0.5-1.5-0.5
				c-0.5,0-1,0.1-1.4,0.2c-0.5,0.1-0.9,0.3-1.3,0.5l-0.4-1.1c0.4-0.2,0.9-0.4,1.5-0.6S333.7,131.4,334.3,131.4z M336.3,136.4
				l-1.5,0.1c-1.2,0-2,0.2-2.5,0.6c-0.5,0.3-0.7,0.8-0.7,1.5c0,0.5,0.2,1,0.5,1.2s0.8,0.4,1.3,0.4c0.8,0,1.5-0.2,2.1-0.7
				c0.5-0.5,0.8-1.2,0.8-2.1V136.4z"/>
			<path fill="#0090FF" d="M344.1,141.3c-1.2,0-2.2-0.4-2.9-1.2s-1.1-2.1-1.1-3.7c0-1.6,0.4-2.9,1.1-3.7c0.7-0.8,1.7-1.3,2.9-1.3
				c0.5,0,0.9,0.1,1.3,0.2s0.7,0.3,1,0.5c0.3,0.2,0.5,0.5,0.7,0.8h0.1c0-0.2,0-0.4-0.1-0.7c0-0.3,0-0.6,0-0.8v-3.8h1.4v13.6h-1.2
				l-0.2-1.4h-0.1c-0.2,0.3-0.4,0.5-0.7,0.8s-0.6,0.4-1,0.6S344.6,141.3,344.1,141.3z M344.3,140.1c1,0,1.7-0.3,2.2-0.9
				s0.6-1.4,0.6-2.6v-0.3c0-1.2-0.2-2.1-0.6-2.8c-0.4-0.7-1.1-1-2.2-1c-0.9,0-1.6,0.3-2,1s-0.7,1.6-0.7,2.8c0,1.2,0.2,2.1,0.7,2.7
				S343.4,140.1,344.3,140.1z"/>
			<path fill="#0090FF" d="M359.8,136.3c0,0.8-0.1,1.5-0.3,2.1c-0.2,0.6-0.5,1.1-0.9,1.6c-0.4,0.4-0.8,0.7-1.4,1
				c-0.5,0.2-1.2,0.3-1.8,0.3c-0.6,0-1.2-0.1-1.8-0.3c-0.5-0.2-1-0.5-1.4-1c-0.4-0.4-0.7-0.9-0.9-1.6c-0.2-0.6-0.3-1.3-0.3-2.1
				c0-1,0.2-1.9,0.5-2.7c0.4-0.7,0.9-1.3,1.5-1.7c0.7-0.4,1.4-0.6,2.4-0.6c0.9,0,1.6,0.2,2.3,0.6s1.2,1,1.5,1.7
				C359.6,134.4,359.8,135.3,359.8,136.3z M352.6,136.3c0,0.8,0.1,1.4,0.3,2s0.5,1,0.9,1.3c0.4,0.3,1,0.5,1.6,0.5
				c0.7,0,1.2-0.2,1.6-0.5c0.4-0.3,0.7-0.7,0.9-1.3c0.2-0.6,0.3-1.2,0.3-2c0-0.8-0.1-1.4-0.3-2c-0.2-0.6-0.5-1-0.9-1.3
				c-0.4-0.3-1-0.5-1.6-0.5c-1,0-1.7,0.3-2.2,1C352.8,134.3,352.6,135.2,352.6,136.3z"/>
			<path fill="#0090FF" d="M366.7,131.4c0.2,0,0.4,0,0.6,0c0.2,0,0.4,0,0.6,0.1l-0.2,1.3c-0.2,0-0.3-0.1-0.5-0.1c-0.2,0-0.4,0-0.5,0
				c-0.4,0-0.7,0.1-1.1,0.2c-0.3,0.2-0.6,0.4-0.9,0.7c-0.3,0.3-0.5,0.6-0.6,1c-0.1,0.4-0.2,0.9-0.2,1.3v5.1h-1.5v-9.6h1.2l0.2,1.8
				h0.1c0.2-0.4,0.4-0.7,0.7-1c0.3-0.3,0.6-0.5,1-0.7S366.2,131.4,366.7,131.4z"/>
		</g>
	</g>
	<g>
		<g>
			<path fill="#0090FF" d="M492.5,51.1c0,2.1-0.4,3.9-1.2,5.4c-0.8,1.5-2,2.8-3.4,3.7c-1.5,1-3.1,1.7-5.1,2.1v0.2
				c3.7,0.5,6.4,1.6,8.3,3.5c1.9,1.9,2.8,4.3,2.8,7.4c0,2.7-0.6,5.1-1.9,7.1c-1.3,2.1-3.2,3.7-5.8,4.9c-2.6,1.2-6,1.8-10.1,1.8
				c-2.5,0-4.7-0.2-6.9-0.6c-2.1-0.4-4.1-1-6-1.9v-5.8c1.9,1,4,1.7,6.2,2.3c2.2,0.5,4.4,0.8,6.4,0.8c4,0,6.9-0.8,8.7-2.3
				c1.8-1.6,2.6-3.7,2.6-6.4c0-1.8-0.5-3.3-1.4-4.4c-0.9-1.1-2.4-2-4.2-2.5c-1.9-0.5-4.2-0.8-7-0.8h-4.3v-5.2h4.4
				c2.6,0,4.7-0.3,6.4-1c1.7-0.7,2.9-1.6,3.7-2.9c0.8-1.2,1.2-2.7,1.2-4.4c0-2.2-0.7-3.8-2.1-5c-1.4-1.2-3.4-1.8-6-1.8
				c-1.6,0-3.1,0.2-4.4,0.5c-1.3,0.3-2.5,0.8-3.7,1.4c-1.1,0.6-2.2,1.2-3.3,1.9l-3.1-4.4c1.7-1.3,3.8-2.4,6.2-3.3
				c2.4-0.9,5.2-1.4,8.3-1.4c4.7,0,8.3,1,10.8,3.1S492.5,47.7,492.5,51.1z"/>
		</g>
	</g>
	<g>
		<g>
			<path fill="#0090FF" d="M426.9,141.1h-7.1v-12.7h7.1v1.3h-5.6v4.1h5.3v1.3h-5.3v4.7h5.6V141.1z"/>
			<path fill="#0090FF" d="M431,141.1h-1.5v-13.6h1.5V141.1z"/>
			<path fill="#0090FF" d="M434.8,128c0.2,0,0.4,0.1,0.6,0.2s0.3,0.4,0.3,0.7c0,0.3-0.1,0.6-0.3,0.7s-0.4,0.2-0.6,0.2
				c-0.3,0-0.5-0.1-0.6-0.2c-0.2-0.2-0.2-0.4-0.2-0.7c0-0.3,0.1-0.6,0.2-0.7C434.3,128.1,434.5,128,434.8,128z M435.5,131.6v9.6H434
				v-9.6H435.5z"/>
			<path fill="#0090FF" d="M441.2,145.4c-1.3,0-2.2-0.2-2.9-0.7c-0.7-0.5-1-1.1-1-2c0-0.6,0.2-1.1,0.6-1.5c0.4-0.4,0.9-0.7,1.6-0.8
				c-0.3-0.1-0.5-0.3-0.6-0.5s-0.3-0.5-0.3-0.8c0-0.3,0.1-0.7,0.3-0.9s0.5-0.5,0.9-0.8c-0.5-0.2-0.9-0.5-1.2-1
				c-0.3-0.5-0.5-1.1-0.5-1.7c0-0.7,0.1-1.3,0.4-1.8c0.3-0.5,0.7-0.9,1.2-1.1c0.5-0.3,1.2-0.4,2-0.4c0.2,0,0.3,0,0.5,0
				c0.2,0,0.3,0,0.5,0.1c0.2,0,0.3,0.1,0.4,0.1h3.3v0.9l-1.8,0.2c0.2,0.2,0.3,0.5,0.4,0.8c0.1,0.3,0.2,0.7,0.2,1.1
				c0,1-0.3,1.7-1,2.3c-0.6,0.6-1.5,0.8-2.7,0.8c-0.3,0-0.5,0-0.8-0.1c-0.3,0.2-0.5,0.3-0.6,0.5c-0.1,0.2-0.2,0.4-0.2,0.7
				c0,0.2,0.1,0.3,0.2,0.4s0.3,0.2,0.5,0.2c0.2,0,0.5,0.1,0.8,0.1h1.7c1,0,1.8,0.2,2.4,0.7c0.6,0.4,0.8,1.1,0.8,1.9
				c0,1.1-0.4,1.9-1.3,2.4S442.8,145.4,441.2,145.4z M441.2,144.3c0.8,0,1.4-0.1,2-0.2c0.5-0.2,0.9-0.4,1.2-0.7
				c0.3-0.3,0.4-0.7,0.4-1.1c0-0.4-0.1-0.7-0.3-0.9c-0.2-0.2-0.4-0.3-0.8-0.4c-0.3-0.1-0.7-0.1-1.2-0.1h-1.7c-0.4,0-0.8,0.1-1.1,0.2
				s-0.6,0.3-0.7,0.6c-0.2,0.3-0.3,0.6-0.3,1c0,0.5,0.2,0.9,0.7,1.2C439.8,144.1,440.4,144.3,441.2,144.3z M441.6,136.6
				c0.7,0,1.2-0.2,1.6-0.5s0.5-0.9,0.5-1.5c0-0.7-0.2-1.3-0.5-1.6s-0.9-0.5-1.6-0.5c-0.7,0-1.2,0.2-1.5,0.6s-0.5,0.9-0.5,1.6
				c0,0.7,0.2,1.2,0.5,1.5S440.9,136.6,441.6,136.6z"/>
			<path fill="#0090FF" d="M451.9,131.4c0.8,0,1.5,0.2,2.1,0.5c0.6,0.4,1,0.9,1.3,1.5s0.5,1.4,0.5,2.3v0.9h-6.6c0,1.1,0.3,2,0.8,2.6
				c0.5,0.6,1.3,0.9,2.3,0.9c0.6,0,1.1-0.1,1.6-0.2c0.5-0.1,0.9-0.3,1.4-0.5v1.3c-0.5,0.2-1,0.4-1.4,0.5c-0.5,0.1-1,0.1-1.7,0.1
				c-0.9,0-1.7-0.2-2.4-0.6s-1.2-0.9-1.6-1.7c-0.4-0.7-0.6-1.6-0.6-2.7c0-1,0.2-1.9,0.5-2.7s0.8-1.3,1.5-1.7
				C450.3,131.6,451,131.4,451.9,131.4z M451.9,132.6c-0.8,0-1.4,0.3-1.8,0.8c-0.5,0.5-0.7,1.2-0.8,2.1h5.1c0-0.6-0.1-1.1-0.3-1.5
				c-0.2-0.4-0.4-0.8-0.8-1S452.4,132.6,451.9,132.6z"/>
			<path fill="#0090FF" d="M464.3,141.1h-1.5v-13.6h1.5V141.1z"/>
			<path fill="#0090FF" d="M471,131.4c1.1,0,2,0.3,2.5,0.8c0.6,0.5,0.8,1.3,0.8,2.4v6.5h-1.1l-0.3-1.4h-0.1
				c-0.3,0.3-0.5,0.6-0.8,0.9c-0.3,0.2-0.6,0.4-1,0.5c-0.4,0.1-0.8,0.2-1.4,0.2c-0.6,0-1.1-0.1-1.5-0.3c-0.5-0.2-0.8-0.5-1.1-0.9
				c-0.3-0.4-0.4-0.9-0.4-1.6c0-1,0.4-1.7,1.1-2.2c0.8-0.5,1.9-0.8,3.5-0.8l1.6-0.1v-0.6c0-0.8-0.2-1.4-0.5-1.7s-0.9-0.5-1.5-0.5
				c-0.5,0-1,0.1-1.4,0.2c-0.5,0.1-0.9,0.3-1.3,0.5l-0.4-1.1c0.4-0.2,0.9-0.4,1.5-0.6S470.3,131.4,471,131.4z M472.9,136.4l-1.5,0.1
				c-1.2,0-2,0.2-2.5,0.6c-0.5,0.3-0.7,0.8-0.7,1.5c0,0.5,0.2,1,0.5,1.2s0.8,0.4,1.3,0.4c0.8,0,1.5-0.2,2.1-0.7
				c0.5-0.5,0.8-1.2,0.8-2.1V136.4z"/>
			<path fill="#0090FF" d="M483.5,138.5c0,0.6-0.2,1.1-0.5,1.5c-0.3,0.4-0.7,0.7-1.3,0.9s-1.2,0.3-2,0.3c-0.7,0-1.2-0.1-1.7-0.2
				c-0.5-0.1-0.9-0.3-1.3-0.4v-1.3c0.4,0.2,0.9,0.4,1.4,0.5c0.5,0.2,1.1,0.2,1.7,0.2c0.8,0,1.4-0.1,1.8-0.4c0.4-0.3,0.6-0.6,0.6-1.1
				c0-0.3-0.1-0.5-0.2-0.7s-0.4-0.4-0.7-0.6c-0.3-0.2-0.8-0.4-1.4-0.6c-0.6-0.2-1.1-0.5-1.6-0.7s-0.8-0.5-1-0.8s-0.4-0.8-0.4-1.3
				c0-0.8,0.3-1.4,1-1.9s1.5-0.6,2.6-0.6c0.6,0,1.1,0.1,1.6,0.2c0.5,0.1,1,0.3,1.4,0.5l-0.5,1.2c-0.4-0.2-0.8-0.3-1.3-0.4
				s-0.9-0.2-1.4-0.2c-0.7,0-1.2,0.1-1.5,0.3s-0.5,0.5-0.5,0.9c0,0.3,0.1,0.5,0.2,0.7c0.2,0.2,0.4,0.4,0.8,0.5
				c0.4,0.2,0.8,0.4,1.4,0.6c0.6,0.2,1.1,0.4,1.6,0.7s0.8,0.5,1,0.9S483.5,138,483.5,138.5z"/>
			<path fill="#0090FF" d="M491.9,141.1h-1.5v-13.6h1.5V141.1z"/>
			<path fill="#0090FF" d="M498.5,131.4c1.1,0,2,0.3,2.5,0.8c0.6,0.5,0.8,1.3,0.8,2.4v6.5h-1.1l-0.3-1.4h-0.1
				c-0.3,0.3-0.5,0.6-0.8,0.9c-0.3,0.2-0.6,0.4-1,0.5c-0.4,0.1-0.8,0.2-1.4,0.2c-0.6,0-1.1-0.1-1.5-0.3c-0.5-0.2-0.8-0.5-1.1-0.9
				c-0.3-0.4-0.4-0.9-0.4-1.6c0-1,0.4-1.7,1.1-2.2c0.8-0.5,1.9-0.8,3.5-0.8l1.6-0.1v-0.6c0-0.8-0.2-1.4-0.5-1.7s-0.9-0.5-1.5-0.5
				c-0.5,0-1,0.1-1.4,0.2c-0.5,0.1-0.9,0.3-1.3,0.5l-0.4-1.1c0.4-0.2,0.9-0.4,1.5-0.6S497.9,131.4,498.5,131.4z M500.5,136.4
				l-1.5,0.1c-1.2,0-2,0.2-2.5,0.6c-0.5,0.3-0.7,0.8-0.7,1.5c0,0.5,0.2,1,0.5,1.2s0.8,0.4,1.3,0.4c0.8,0,1.5-0.2,2.1-0.7
				c0.5-0.5,0.8-1.2,0.8-2.1V136.4z"/>
			<path fill="#0090FF" d="M506.3,127.6v3.4c0,0.4,0,0.8,0,1.1c0,0.4,0,0.7,0,0.9h0.1c0.3-0.4,0.6-0.8,1.1-1.1s1.1-0.4,1.9-0.4
				c1.2,0,2.2,0.4,2.9,1.2c0.7,0.8,1.1,2.1,1.1,3.7c0,1.1-0.2,2-0.5,2.7c-0.3,0.7-0.8,1.3-1.4,1.7c-0.6,0.4-1.3,0.6-2.1,0.6
				c-0.8,0-1.4-0.1-1.9-0.4c-0.5-0.3-0.9-0.6-1.1-1h-0.1l-0.3,1.3h-1v-13.6H506.3z M509.1,132.6c-0.7,0-1.2,0.1-1.6,0.4
				c-0.4,0.3-0.7,0.7-0.9,1.2s-0.3,1.2-0.3,2.1v0.1c0,1.2,0.2,2.1,0.6,2.8c0.4,0.6,1.1,1,2.2,1c0.9,0,1.6-0.3,2-1
				c0.4-0.7,0.7-1.6,0.7-2.8c0-1.2-0.2-2.2-0.7-2.8C510.7,132.9,510,132.6,509.1,132.6z"/>
			<path fill="#0090FF" d="M524,136.3c0,0.8-0.1,1.5-0.3,2.1c-0.2,0.6-0.5,1.1-0.9,1.6c-0.4,0.4-0.8,0.7-1.4,1
				c-0.5,0.2-1.2,0.3-1.8,0.3c-0.6,0-1.2-0.1-1.8-0.3c-0.5-0.2-1-0.5-1.4-1c-0.4-0.4-0.7-0.9-0.9-1.6c-0.2-0.6-0.3-1.3-0.3-2.1
				c0-1,0.2-1.9,0.5-2.7c0.4-0.7,0.9-1.3,1.5-1.7c0.7-0.4,1.4-0.6,2.4-0.6c0.9,0,1.6,0.2,2.3,0.6s1.2,1,1.5,1.7
				C523.9,134.4,524,135.3,524,136.3z M516.8,136.3c0,0.8,0.1,1.4,0.3,2s0.5,1,0.9,1.3c0.4,0.3,1,0.5,1.6,0.5c0.7,0,1.2-0.2,1.6-0.5
				c0.4-0.3,0.7-0.7,0.9-1.3c0.2-0.6,0.3-1.2,0.3-2c0-0.8-0.1-1.4-0.3-2c-0.2-0.6-0.5-1-0.9-1.3c-0.4-0.3-1-0.5-1.6-0.5
				c-1,0-1.7,0.3-2.2,1C517,134.3,516.8,135.2,516.8,136.3z"/>
			<path fill="#0090FF" d="M530.9,131.4c0.2,0,0.4,0,0.6,0c0.2,0,0.4,0,0.6,0.1l-0.2,1.3c-0.2,0-0.3-0.1-0.5-0.1c-0.2,0-0.4,0-0.5,0
				c-0.4,0-0.7,0.1-1.1,0.2c-0.3,0.2-0.6,0.4-0.9,0.7c-0.3,0.3-0.5,0.6-0.6,1c-0.1,0.4-0.2,0.9-0.2,1.3v5.1h-1.5v-9.6h1.2l0.2,1.8
				h0.1c0.2-0.4,0.4-0.7,0.7-1c0.3-0.3,0.6-0.5,1-0.7S530.4,131.4,530.9,131.4z"/>
			<path fill="#0090FF" d="M537.5,131.4c0.8,0,1.5,0.2,2.1,0.5c0.6,0.4,1,0.9,1.3,1.5s0.5,1.4,0.5,2.3v0.9h-6.6c0,1.1,0.3,2,0.8,2.6
				c0.5,0.6,1.3,0.9,2.3,0.9c0.6,0,1.1-0.1,1.6-0.2c0.5-0.1,0.9-0.3,1.4-0.5v1.3c-0.5,0.2-1,0.4-1.4,0.5c-0.5,0.1-1,0.1-1.7,0.1
				c-0.9,0-1.7-0.2-2.4-0.6s-1.2-0.9-1.6-1.7c-0.4-0.7-0.6-1.6-0.6-2.7c0-1,0.2-1.9,0.5-2.7s0.8-1.3,1.5-1.7
				C535.9,131.6,536.7,131.4,537.5,131.4z M537.5,132.6c-0.8,0-1.4,0.3-1.8,0.8c-0.5,0.5-0.7,1.2-0.8,2.1h5.1c0-0.6-0.1-1.1-0.3-1.5
				c-0.2-0.4-0.4-0.8-0.8-1S538.1,132.6,537.5,132.6z"/>
			<path fill="#0090FF" d="M550,138.5c0,0.6-0.2,1.1-0.5,1.5c-0.3,0.4-0.7,0.7-1.3,0.9s-1.2,0.3-2,0.3c-0.7,0-1.2-0.1-1.7-0.2
				c-0.5-0.1-0.9-0.3-1.3-0.4v-1.3c0.4,0.2,0.9,0.4,1.4,0.5c0.5,0.2,1.1,0.2,1.7,0.2c0.8,0,1.4-0.1,1.8-0.4c0.4-0.3,0.6-0.6,0.6-1.1
				c0-0.3-0.1-0.5-0.2-0.7s-0.4-0.4-0.7-0.6c-0.3-0.2-0.8-0.4-1.4-0.6c-0.6-0.2-1.1-0.5-1.6-0.7s-0.8-0.5-1-0.8s-0.4-0.8-0.4-1.3
				c0-0.8,0.3-1.4,1-1.9s1.5-0.6,2.6-0.6c0.6,0,1.1,0.1,1.6,0.2c0.5,0.1,1,0.3,1.4,0.5l-0.5,1.2c-0.4-0.2-0.8-0.3-1.3-0.4
				s-0.9-0.2-1.4-0.2c-0.7,0-1.2,0.1-1.5,0.3s-0.5,0.5-0.5,0.9c0,0.3,0.1,0.5,0.2,0.7c0.2,0.2,0.4,0.4,0.8,0.5
				c0.4,0.2,0.8,0.4,1.4,0.6c0.6,0.2,1.1,0.4,1.6,0.7s0.8,0.5,1,0.9S550,138,550,138.5z"/>
		</g>
	</g>
	<g>
		<g>
			<path fill="#0090FF" d="M680.3,72.5h-6.6v10.4h-6.2V72.5h-21.7v-5l21.5-30.9h6.3V67h6.6V72.5z M667.5,67V53.7c0-1.1,0-2.1,0-3
				c0-1,0.1-1.9,0.1-2.7c0-0.9,0.1-1.7,0.1-2.4c0-0.7,0.1-1.4,0.1-2h-0.3c-0.4,0.8-0.8,1.7-1.3,2.6c-0.5,0.9-1,1.7-1.6,2.5L651.9,67
				H667.5z"/>
		</g>
	</g>
	<g>
		<g>
			<path fill="#0090FF" d="M600.6,141.3c-0.9,0-1.6-0.2-2.3-0.5c-0.7-0.4-1.2-0.9-1.5-1.6c-0.4-0.7-0.5-1.6-0.5-2.7
				c0-1.2,0.2-2.1,0.6-2.8c0.4-0.7,0.9-1.3,1.6-1.6c0.7-0.4,1.5-0.5,2.3-0.5c0.5,0,0.9,0,1.4,0.1c0.4,0.1,0.8,0.2,1.1,0.4l-0.4,1.2
				c-0.3-0.1-0.6-0.2-1-0.3c-0.4-0.1-0.7-0.1-1.1-0.1c-0.7,0-1.2,0.1-1.7,0.4s-0.8,0.7-1,1.3c-0.2,0.6-0.3,1.2-0.3,2
				c0,0.8,0.1,1.4,0.3,2c0.2,0.5,0.5,1,1,1.3c0.4,0.3,0.9,0.4,1.6,0.4c0.5,0,1-0.1,1.4-0.2c0.4-0.1,0.8-0.2,1.1-0.4v1.3
				c-0.3,0.2-0.7,0.3-1.1,0.4C601.6,141.2,601.1,141.3,600.6,141.3z"/>
			<path fill="#0090FF" d="M613.5,136.3c0,0.8-0.1,1.5-0.3,2.1c-0.2,0.6-0.5,1.1-0.9,1.6c-0.4,0.4-0.8,0.7-1.4,1
				c-0.5,0.2-1.2,0.3-1.8,0.3c-0.6,0-1.2-0.1-1.8-0.3c-0.5-0.2-1-0.5-1.4-1c-0.4-0.4-0.7-0.9-0.9-1.6c-0.2-0.6-0.3-1.3-0.3-2.1
				c0-1,0.2-1.9,0.5-2.7c0.4-0.7,0.9-1.3,1.5-1.7c0.7-0.4,1.4-0.6,2.4-0.6c0.9,0,1.6,0.2,2.3,0.6s1.2,1,1.5,1.7
				C613.4,134.4,613.5,135.3,613.5,136.3z M606.3,136.3c0,0.8,0.1,1.4,0.3,2s0.5,1,0.9,1.3c0.4,0.3,1,0.5,1.6,0.5
				c0.7,0,1.2-0.2,1.6-0.5c0.4-0.3,0.7-0.7,0.9-1.3c0.2-0.6,0.3-1.2,0.3-2c0-0.8-0.1-1.4-0.3-2c-0.2-0.6-0.5-1-0.9-1.3
				c-0.4-0.3-1-0.5-1.6-0.5c-1,0-1.7,0.3-2.2,1C606.5,134.3,606.3,135.2,606.3,136.3z"/>
			<path fill="#0090FF" d="M620.6,131.4c1.1,0,2,0.3,2.6,0.8c0.6,0.6,0.9,1.4,0.9,2.7v6.2h-1.4V135c0-0.8-0.2-1.4-0.5-1.8
				c-0.4-0.4-0.9-0.6-1.7-0.6c-1.1,0-1.8,0.3-2.2,0.9c-0.4,0.6-0.6,1.5-0.6,2.6v5H616v-9.6h1.2l0.2,1.4h0.1c0.2-0.3,0.5-0.6,0.8-0.8
				c0.3-0.2,0.7-0.4,1.1-0.5S620.1,131.4,620.6,131.4z"/>
			<path fill="#0090FF" d="M631.2,132.7h-2.4v8.4h-1.4v-8.4h-1.7V132l1.7-0.5v-0.6c0-0.8,0.1-1.5,0.4-2c0.2-0.5,0.6-0.9,1-1.1
				c0.5-0.2,1-0.4,1.7-0.4c0.4,0,0.7,0,1,0.1c0.3,0.1,0.6,0.1,0.8,0.2l-0.4,1.1c-0.2-0.1-0.4-0.1-0.7-0.2s-0.5-0.1-0.8-0.1
				c-0.6,0-1,0.2-1.2,0.5c-0.3,0.4-0.4,0.9-0.4,1.7v0.7h2.4V132.7z M633.7,128c0.2,0,0.4,0.1,0.6,0.2c0.2,0.2,0.3,0.4,0.3,0.7
				c0,0.3-0.1,0.6-0.3,0.7c-0.2,0.2-0.4,0.2-0.6,0.2c-0.2,0-0.5-0.1-0.6-0.2c-0.2-0.2-0.2-0.4-0.2-0.7c0-0.3,0.1-0.6,0.2-0.7
				C633.3,128.1,633.5,128,633.7,128z M634.4,131.6v9.6H633v-9.6H634.4z"/>
			<path fill="#0090FF" d="M641.8,131.4c0.2,0,0.4,0,0.6,0c0.2,0,0.4,0,0.6,0.1l-0.2,1.3c-0.2,0-0.3-0.1-0.5-0.1c-0.2,0-0.4,0-0.5,0
				c-0.4,0-0.7,0.1-1.1,0.2c-0.3,0.2-0.6,0.4-0.9,0.7c-0.3,0.3-0.5,0.6-0.6,1c-0.1,0.4-0.2,0.9-0.2,1.3v5.1h-1.5v-9.6h1.2l0.2,1.8
				h0.1c0.2-0.4,0.4-0.7,0.7-1c0.3-0.3,0.6-0.5,1-0.7S641.4,131.4,641.8,131.4z"/>
			<path fill="#0090FF" d="M655.2,131.4c1.1,0,1.8,0.3,2.4,0.8c0.5,0.5,0.8,1.4,0.8,2.6v6.3h-1.4v-6.2c0-0.8-0.2-1.4-0.5-1.7
				c-0.3-0.4-0.8-0.6-1.5-0.6c-0.9,0-1.6,0.3-2,0.8s-0.6,1.3-0.6,2.4v5.3h-1.4v-6.2c0-0.5-0.1-0.9-0.2-1.3c-0.1-0.3-0.4-0.6-0.7-0.8
				s-0.7-0.3-1.1-0.3c-0.6,0-1.1,0.1-1.5,0.4c-0.4,0.3-0.7,0.6-0.8,1.2c-0.2,0.5-0.3,1.1-0.3,1.9v5.1h-1.4v-9.6h1.2l0.2,1.4h0.1
				c0.2-0.3,0.4-0.6,0.7-0.8c0.3-0.2,0.6-0.4,1-0.5c0.4-0.1,0.7-0.2,1.2-0.2c0.7,0,1.3,0.1,1.8,0.4c0.5,0.3,0.8,0.7,1.1,1.2h0.1
				c0.3-0.6,0.7-1,1.3-1.2C653.9,131.5,654.5,131.4,655.2,131.4z"/>
			<path fill="#0090FF" d="M664.9,131.4c1.1,0,2,0.3,2.5,0.8c0.6,0.5,0.8,1.3,0.8,2.4v6.5h-1.1l-0.3-1.4h-0.1
				c-0.3,0.3-0.5,0.6-0.8,0.9c-0.3,0.2-0.6,0.4-1,0.5c-0.4,0.1-0.8,0.2-1.4,0.2c-0.6,0-1.1-0.1-1.5-0.3c-0.5-0.2-0.8-0.5-1.1-0.9
				c-0.3-0.4-0.4-0.9-0.4-1.6c0-1,0.4-1.7,1.1-2.2c0.8-0.5,1.9-0.8,3.5-0.8l1.6-0.1v-0.6c0-0.8-0.2-1.4-0.5-1.7s-0.9-0.5-1.5-0.5
				c-0.5,0-1,0.1-1.4,0.2c-0.5,0.1-0.9,0.3-1.3,0.5l-0.4-1.1c0.4-0.2,0.9-0.4,1.5-0.6S664.3,131.4,664.9,131.4z M666.8,136.4
				l-1.5,0.1c-1.2,0-2,0.2-2.5,0.6c-0.5,0.3-0.7,0.8-0.7,1.5c0,0.5,0.2,1,0.5,1.2s0.8,0.4,1.3,0.4c0.8,0,1.5-0.2,2.1-0.7
				c0.5-0.5,0.8-1.2,0.8-2.1V136.4z"/>
			<path fill="#0090FF" d="M679,140.1c0.2,0,0.5,0,0.7-0.1c0.2,0,0.5-0.1,0.6-0.1v1.1c-0.2,0.1-0.4,0.1-0.7,0.2
				c-0.3,0.1-0.6,0.1-0.9,0.1c-0.5,0-1-0.1-1.4-0.3s-0.7-0.5-1-0.9c-0.2-0.4-0.4-1-0.4-1.8v-5.7h-1.4V132l1.4-0.6l0.6-2.1h0.9v2.2
				h2.8v1.1h-2.8v5.6c0,0.6,0.1,1,0.4,1.3S678.5,140.1,679,140.1z"/>
			<path fill="#0090FF" d="M690.1,131.6v9.6H689l-0.2-1.3h-0.1c-0.2,0.3-0.5,0.6-0.8,0.8c-0.3,0.2-0.7,0.4-1.1,0.5s-0.8,0.2-1.3,0.2
				c-0.8,0-1.4-0.1-1.9-0.4c-0.5-0.2-0.9-0.6-1.2-1.1c-0.3-0.5-0.4-1.2-0.4-2v-6.3h1.5v6.2c0,0.8,0.2,1.4,0.5,1.8s0.9,0.6,1.6,0.6
				c0.7,0,1.3-0.1,1.7-0.4c0.4-0.3,0.7-0.7,0.9-1.2c0.2-0.5,0.3-1.2,0.3-1.9v-5H690.1z"/>
			<path fill="#0090FF" d="M704,138.5c0,0.6-0.2,1.1-0.5,1.5c-0.3,0.4-0.7,0.7-1.3,0.9s-1.2,0.3-2,0.3c-0.7,0-1.2-0.1-1.7-0.2
				c-0.5-0.1-0.9-0.3-1.3-0.4v-1.3c0.4,0.2,0.9,0.4,1.4,0.5c0.5,0.2,1.1,0.2,1.7,0.2c0.8,0,1.4-0.1,1.8-0.4c0.4-0.3,0.6-0.6,0.6-1.1
				c0-0.3-0.1-0.5-0.2-0.7s-0.4-0.4-0.7-0.6c-0.3-0.2-0.8-0.4-1.4-0.6c-0.6-0.2-1.1-0.5-1.6-0.7s-0.8-0.5-1-0.8s-0.4-0.8-0.4-1.3
				c0-0.8,0.3-1.4,1-1.9s1.5-0.6,2.6-0.6c0.6,0,1.1,0.1,1.6,0.2c0.5,0.1,1,0.3,1.4,0.5l-0.5,1.2c-0.4-0.2-0.8-0.3-1.3-0.4
				s-0.9-0.2-1.4-0.2c-0.7,0-1.2,0.1-1.5,0.3s-0.5,0.5-0.5,0.9c0,0.3,0.1,0.5,0.2,0.7c0.2,0.2,0.4,0.4,0.8,0.5
				c0.4,0.2,0.8,0.4,1.4,0.6c0.6,0.2,1.1,0.4,1.6,0.7s0.8,0.5,1,0.9S704,138,704,138.5z"/>
			<path fill="#0090FF" d="M710,131.4c0.8,0,1.5,0.2,2.1,0.5c0.6,0.4,1,0.9,1.3,1.5s0.5,1.4,0.5,2.3v0.9h-6.6c0,1.1,0.3,2,0.8,2.6
				c0.5,0.6,1.3,0.9,2.3,0.9c0.6,0,1.1-0.1,1.6-0.2c0.5-0.1,0.9-0.3,1.4-0.5v1.3c-0.5,0.2-1,0.4-1.4,0.5c-0.5,0.1-1,0.1-1.7,0.1
				c-0.9,0-1.7-0.2-2.4-0.6s-1.2-0.9-1.6-1.7c-0.4-0.7-0.6-1.6-0.6-2.7c0-1,0.2-1.9,0.5-2.7s0.8-1.3,1.5-1.7
				C708.4,131.6,709.2,131.4,710,131.4z M710,132.6c-0.8,0-1.4,0.3-1.8,0.8c-0.5,0.5-0.7,1.2-0.8,2.1h5.1c0-0.6-0.1-1.1-0.3-1.5
				c-0.2-0.4-0.4-0.8-0.8-1S710.6,132.6,710,132.6z"/>
			<path fill="#0090FF" d="M720.7,131.4c0.2,0,0.4,0,0.6,0c0.2,0,0.4,0,0.6,0.1l-0.2,1.3c-0.2,0-0.3-0.1-0.5-0.1c-0.2,0-0.4,0-0.5,0
				c-0.4,0-0.7,0.1-1.1,0.2c-0.3,0.2-0.6,0.4-0.9,0.7c-0.3,0.3-0.5,0.6-0.6,1c-0.1,0.4-0.2,0.9-0.2,1.3v5.1h-1.5v-9.6h1.2l0.2,1.8
				h0.1c0.2-0.4,0.4-0.7,0.7-1c0.3-0.3,0.6-0.5,1-0.7S720.3,131.4,720.7,131.4z"/>
			<path fill="#0090FF" d="M725.8,141.1l-3.6-9.6h1.6l2.1,5.8c0.1,0.4,0.3,0.8,0.4,1.3s0.3,0.9,0.3,1.2h0.1c0.1-0.3,0.2-0.7,0.3-1.2
				c0.2-0.5,0.3-0.9,0.4-1.3l2.1-5.8h1.6l-3.6,9.6H725.8z"/>
			<path fill="#0090FF" d="M733.3,128c0.2,0,0.4,0.1,0.6,0.2s0.3,0.4,0.3,0.7c0,0.3-0.1,0.6-0.3,0.7s-0.4,0.2-0.6,0.2
				c-0.3,0-0.5-0.1-0.6-0.2c-0.2-0.2-0.2-0.4-0.2-0.7c0-0.3,0.1-0.6,0.2-0.7C732.9,128.1,733.1,128,733.3,128z M734,131.6v9.6h-1.4
				v-9.6H734z"/>
			<path fill="#0090FF" d="M740.9,141.3c-0.9,0-1.6-0.2-2.3-0.5c-0.7-0.4-1.2-0.9-1.5-1.6c-0.4-0.7-0.5-1.6-0.5-2.7
				c0-1.2,0.2-2.1,0.6-2.8c0.4-0.7,0.9-1.3,1.6-1.6c0.7-0.4,1.5-0.5,2.3-0.5c0.5,0,0.9,0,1.4,0.1c0.4,0.1,0.8,0.2,1.1,0.4l-0.4,1.2
				c-0.3-0.1-0.6-0.2-1-0.3c-0.4-0.1-0.7-0.1-1.1-0.1c-0.7,0-1.2,0.1-1.7,0.4s-0.8,0.7-1,1.3c-0.2,0.6-0.3,1.2-0.3,2
				c0,0.8,0.1,1.4,0.3,2c0.2,0.5,0.5,1,1,1.3c0.4,0.3,0.9,0.4,1.6,0.4c0.5,0,1-0.1,1.4-0.2c0.4-0.1,0.8-0.2,1.1-0.4v1.3
				c-0.3,0.2-0.7,0.3-1.1,0.4C741.9,141.2,741.5,141.3,740.9,141.3z"/>
			<path fill="#0090FF" d="M746.4,128c0.2,0,0.4,0.1,0.6,0.2s0.3,0.4,0.3,0.7c0,0.3-0.1,0.6-0.3,0.7s-0.4,0.2-0.6,0.2
				c-0.3,0-0.5-0.1-0.6-0.2s-0.2-0.4-0.2-0.7c0-0.3,0.1-0.6,0.2-0.7S746.1,128,746.4,128z M747.1,131.6v9.6h-1.4v-9.6H747.1z"/>
			<path fill="#0090FF" d="M758.4,136.3c0,0.8-0.1,1.5-0.3,2.1c-0.2,0.6-0.5,1.1-0.9,1.6c-0.4,0.4-0.8,0.7-1.4,1
				c-0.5,0.2-1.2,0.3-1.8,0.3c-0.6,0-1.2-0.1-1.8-0.3c-0.5-0.2-1-0.5-1.4-1c-0.4-0.4-0.7-0.9-0.9-1.6c-0.2-0.6-0.3-1.3-0.3-2.1
				c0-1,0.2-1.9,0.5-2.7c0.4-0.7,0.9-1.3,1.5-1.7c0.7-0.4,1.4-0.6,2.4-0.6c0.9,0,1.6,0.2,2.3,0.6s1.2,1,1.5,1.7
				C758.2,134.4,758.4,135.3,758.4,136.3z M751.1,136.3c0,0.8,0.1,1.4,0.3,2s0.5,1,0.9,1.3c0.4,0.3,1,0.5,1.6,0.5
				c0.7,0,1.2-0.2,1.6-0.5c0.4-0.3,0.7-0.7,0.9-1.3c0.2-0.6,0.3-1.2,0.3-2c0-0.8-0.1-1.4-0.3-2c-0.2-0.6-0.5-1-0.9-1.3
				c-0.4-0.3-1-0.5-1.6-0.5c-1,0-1.7,0.3-2.2,1S751.1,135.2,751.1,136.3z"/>
		</g>
	</g>
</g>
</svg>
